<svg id="Capa_1" data-name="Capa 1" xmlns="http://www.w3.org/2000/svg" viewBox="0 0 1280 303"><path d="M305.48,112.45l-4.4.2a39.94,39.94,0,0,0-7.37-10.94,46.54,46.54,0,0,0-10.16-8.1,47.82,47.82,0,0,0-11.86-5,46.84,46.84,0,0,0-12.4-1.71,33.68,33.68,0,0,0-14,2.93,43.93,43.93,0,0,0-12,8,60.4,60.4,0,0,0-9.81,11.86,81.68,81.68,0,0,0-7.33,14.45A91,91,0,0,0,211.63,140a85.68,85.68,0,0,0-1.56,16,65.78,65.78,0,0,0,1.85,15.53A69.75,69.75,0,0,0,217.2,186a60.16,60.16,0,0,0,8.4,12.64,58.59,58.59,0,0,0,11.13,10,50.42,50.42,0,0,0,29,8.94,54,54,0,0,0,13.09-1.42,45.1,45.1,0,0,0,9.81-3.56,32.1,32.1,0,0,0,7-4.74A42.54,42.54,0,0,0,300.3,203a25.93,25.93,0,0,0,2.79-4.15,15.07,15.07,0,0,1,1.41-2.39l-1.56,13.77a26.48,26.48,0,0,1-7,6.3,52.45,52.45,0,0,1-10.4,5.07A72.83,72.83,0,0,1,272.32,225a92.19,92.19,0,0,1-15.38,1.22,100.19,100.19,0,0,1-20.85-2.14,93.81,93.81,0,0,1-19-6.16A75.12,75.12,0,0,1,200.84,208a67.23,67.23,0,0,1-12.7-13.33A61.4,61.4,0,0,1,176.67,159a77.73,77.73,0,0,1,5.52-28.47,73.27,73.27,0,0,1,14-22.07,77.3,77.3,0,0,1,20.36-15.63,99.83,99.83,0,0,1,24.81-9.22,88.91,88.91,0,0,1,15.92-2.15q9-.5,18.06-.49,8.79,0,16.56.19t13,.2a79.4,79.4,0,0,0-1.51,8.15,55.54,55.54,0,0,0-.44,6.69,46.28,46.28,0,0,0,.68,8.16C304.08,106.9,304.7,109.59,305.48,112.45Z"/><path d="M484.29,216.26a80.17,80.17,0,0,1-16.21,4.89,78.72,78.72,0,0,1-13.19,1.27,54,54,0,0,1-8.1-.54,39.77,39.77,0,0,1-5.86-1.32,30.32,30.32,0,0,1-4.89-1.95,27,27,0,0,1-7.51-6.35,60.85,60.85,0,0,1-5.82-8.4,87.22,87.22,0,0,1-4.63-9.28q-2.06-4.79-4-9l-2.44-5.18a156.61,156.61,0,0,0-18.41,6.5q-8.54,3.66-15.18,7.22t-11.18,6.55q-4.55,3-6.4,4.34a46.84,46.84,0,0,1-8.11,7.13,48.21,48.21,0,0,1-10.06,5.32,62,62,0,0,1-12.4,3.37,89.43,89.43,0,0,1-15,1.17l-1-4.19a42.16,42.16,0,0,0,16.35-6.06,46.86,46.86,0,0,0,11.87-11.08,70.53,70.53,0,0,0,8.5-14.85,165.88,165.88,0,0,0,6.25-17.43A92.13,92.13,0,0,1,361,157.28a75,75,0,0,1,6.25-11.38,70.5,70.5,0,0,1,8.39-10.35,45.91,45.91,0,0,1,10.8-8.15q-1.67-3.14-3.28-6.4c-1.07-2.18-2.1-4.38-3.07-6.59q-2.05-3.91-4.1-8.65A52,52,0,0,0,371.15,97a27.31,27.31,0,0,0-6.54-6.79,15.48,15.48,0,0,0-9.33-2.74,33.83,33.83,0,0,0-7.66.88,61.34,61.34,0,0,0-7.18,2.15l-1.37-4q8.51-2.83,17.24-4.84a77.62,77.62,0,0,1,17.33-2,60.59,60.59,0,0,1,8.11.54,36.23,36.23,0,0,1,7.71,1.9,19.53,19.53,0,0,1,6.25,3.86,42,42,0,0,1,5.76,6.35,73.89,73.89,0,0,1,5.13,7.86q2.4,4.2,4.49,8.4t3.81,8c1.14,2.5,2.13,4.67,3,6.49q8.6,18.47,17.09,37t18.26,36.48c1.17,2.15,2.43,4.26,3.76,6.35a31.74,31.74,0,0,0,4.49,5.56,20.79,20.79,0,0,0,5.52,3.91,14.65,14.65,0,0,0,6.84,1.37,32.21,32.21,0,0,0,3.76-.3,20.11,20.11,0,0,0,5.22-1.46ZM391.9,138.63a89,89,0,0,0-4.63,8.49q-2.1,4.4-3.86,8.94c-1.17,3-2.25,6-3.22,9s-2,5.86-2.93,8.59q-1.47,4.5-3.18,8.74a80.67,80.67,0,0,1-3.86,8.26q7.33-4.31,17.19-9a146,146,0,0,1,21.1-8Z"/><path d="M581.26,147q0-7.71-.64-15.38A112.29,112.29,0,0,0,578.48,117a81.32,81.32,0,0,0-3.91-13,41.24,41.24,0,0,0-5.91-10.45,26.24,26.24,0,0,0-8.25-7A22.39,22.39,0,0,0,549.62,84a25.7,25.7,0,0,0-15.58,5,42.9,42.9,0,0,0-11.76,13.47A71.23,71.23,0,0,0,514.8,122a99.78,99.78,0,0,0-2.58,22.9,91.76,91.76,0,0,0,2.88,23.87,93.36,93.36,0,0,0,7.27,19.09,83.57,83.57,0,0,0,9.57,14.65,98.51,98.51,0,0,0,9.72,10.35,67.09,67.09,0,0,0,7.81,6.25c2.18,1.44,3.44,2.22,3.76,2.35h-37.4a23.69,23.69,0,0,1-5.13-3.91,80.84,80.84,0,0,1-7.22-7.81,109.61,109.61,0,0,1-8-11.18,104.4,104.4,0,0,1-7.37-14,97,97,0,0,1-5.42-16.21,75.59,75.59,0,0,1-2.1-17.92,101.87,101.87,0,0,1,1-13.28,84.09,84.09,0,0,1,3.76-15.67,80.3,80.3,0,0,1,7.47-15.87,56.38,56.38,0,0,1,12.06-14,59.06,59.06,0,0,1,17.58-10q10.26-3.81,24.12-3.81a74.76,74.76,0,0,1,16.65,1.71,61.67,61.67,0,0,1,13.53,4.69,51.74,51.74,0,0,1,10.74,7,61,61,0,0,1,8.3,8.6,53.71,53.71,0,0,1,8.59-8.6,55,55,0,0,1,11.43-7,67.8,67.8,0,0,1,14.6-4.69,89,89,0,0,1,18.21-1.71,84.47,84.47,0,0,1,23.78,3,63.53,63.53,0,0,1,17.87,8.16,51.88,51.88,0,0,1,12.6,11.81,65.92,65.92,0,0,1,12.45,28.71,83.59,83.59,0,0,1,1.27,14A64.72,64.72,0,0,1,712.9,166a73.77,73.77,0,0,1-9.57,18.16,84.28,84.28,0,0,1-13.13,14.31,127.62,127.62,0,0,1-14.41,10.79,129.65,129.65,0,0,1-13.33,7.52q-6.19,3-10,4.64h-8.59a43.61,43.61,0,0,0,3.71-2.39,74.29,74.29,0,0,0,7.81-6.4,100.2,100.2,0,0,0,9.77-10.55,84.24,84.24,0,0,0,9.57-14.94A99.29,99.29,0,0,0,682,167.68,93.54,93.54,0,0,0,685,143.41a88.3,88.3,0,0,0-3.22-24.8,62.6,62.6,0,0,0-8.64-18.7,39.64,39.64,0,0,0-12.55-11.77A29.51,29.51,0,0,0,645.62,84a23.72,23.72,0,0,0-11.14,2.54,27.91,27.91,0,0,0-8.59,7,41.79,41.79,0,0,0-6.3,10.45,78.48,78.48,0,0,0-4.25,13A107,107,0,0,0,613,131.64q-.74,7.67-.73,15.38v74.42h-31Z"/><path d="M890.44,216.26a80.17,80.17,0,0,1-16.21,4.89A78.62,78.62,0,0,1,861,222.42a54,54,0,0,1-8.1-.54,40.07,40.07,0,0,1-5.86-1.32,29.82,29.82,0,0,1-4.88-1.95,27,27,0,0,1-7.52-6.35,59.94,59.94,0,0,1-5.81-8.4,87.29,87.29,0,0,1-4.64-9.28q-2.06-4.79-4-9l-2.44-5.18a156.44,156.44,0,0,0-18.4,6.5q-8.55,3.66-15.19,7.22T773,200.69q-4.54,3-6.4,4.34a47.14,47.14,0,0,1-8.1,7.13,48.71,48.71,0,0,1-10.06,5.32A62.11,62.11,0,0,1,736,220.85,89.31,89.31,0,0,1,721,222l-1-4.19a42.21,42.21,0,0,0,16.36-6.06,46.81,46.81,0,0,0,11.86-11.08,70.53,70.53,0,0,0,8.5-14.85A165.88,165.88,0,0,0,763,168.41a92.13,92.13,0,0,1,4.15-11.13,75.88,75.88,0,0,1,6.25-11.38,69.92,69.92,0,0,1,8.4-10.35,45.65,45.65,0,0,1,10.79-8.15q-1.67-3.14-3.27-6.4c-1.08-2.18-2.1-4.38-3.08-6.59q-2.06-3.91-4.1-8.65A52,52,0,0,0,777.3,97a27.31,27.31,0,0,0-6.54-6.79,15.45,15.45,0,0,0-9.32-2.74,33.92,33.92,0,0,0-7.67.88,61.34,61.34,0,0,0-7.18,2.15l-1.37-4q8.5-2.83,17.24-4.84a77.75,77.75,0,0,1,17.33-2,60.59,60.59,0,0,1,8.11.54,36.47,36.47,0,0,1,7.72,1.9,19.64,19.64,0,0,1,6.25,3.86,43,43,0,0,1,5.76,6.35,75.42,75.42,0,0,1,5.12,7.86q2.4,4.2,4.5,8.4t3.8,8c1.14,2.5,2.14,4.67,3,6.49q8.6,18.47,17.09,37t18.26,36.48c1.18,2.15,2.43,4.26,3.76,6.35a31.78,31.78,0,0,0,4.5,5.56,20.9,20.9,0,0,0,5.51,3.91,14.65,14.65,0,0,0,6.84,1.37,32.21,32.21,0,0,0,3.76-.3,20,20,0,0,0,5.22-1.46Zm-92.38-77.63a86.94,86.94,0,0,0-4.64,8.49q-2.1,4.4-3.86,8.94c-1.17,3-2.25,6-3.22,9s-2,5.86-2.93,8.59q-1.47,4.5-3.18,8.74a82.78,82.78,0,0,1-3.85,8.26q7.32-4.31,17.18-9a146,146,0,0,1,21.1-8Z"/><path d="M866.12,81.4H933.6V85a31,31,0,0,0-6.05.49A9.91,9.91,0,0,0,923.84,87a5.3,5.3,0,0,0-1.91,2.29,8,8,0,0,0-.53,3c0,.91.05,1.87.14,2.88a19,19,0,0,0,.64,3.27,506.36,506.36,0,0,0,17.23,55.71q10.22,27.3,23.39,54.15,6.54-12.78,12.89-26.41t11.92-27.69q5.57-14.06,10-28.46a288.43,288.43,0,0,0,7.22-28.86v-1a10.75,10.75,0,0,0-.87-4.34,8.24,8.24,0,0,0-2.88-3.42,16.26,16.26,0,0,0-5.18-2.25A31.81,31.81,0,0,0,988,85V81.4h43.16q-3.42,10.74-7.91,22.46t-9.71,23.68q-5.24,12-10.89,24t-11.38,23.29q-5.71,11.28-11.18,21.63t-10.35,19l-34.57,6A661.51,661.51,0,0,1,909,160.31,650.33,650.33,0,0,1,889.37,98a20.79,20.79,0,0,0-2.59-4.3,20.16,20.16,0,0,0-4.54-4.2,25.94,25.94,0,0,0-6.79-3.22A30.86,30.86,0,0,0,866.12,85Z"/><path d="M1105.19,221.44h-65.43v-3.61a27.8,27.8,0,0,0,8.64-1.13,13.61,13.61,0,0,0,5.27-3,9.52,9.52,0,0,0,2.59-4.29,19.4,19.4,0,0,0,.68-5.18V97.81a13.46,13.46,0,0,0-.73-4.2,10.45,10.45,0,0,0-2.64-4.15,14.78,14.78,0,0,0-5.22-3.18,24.56,24.56,0,0,0-8.59-1.27V81.4h65.43V85a28.09,28.09,0,0,0-8.74,1.13,13.14,13.14,0,0,0-5.28,3,9.87,9.87,0,0,0-2.59,4.35,19.33,19.33,0,0,0-.68,5.17V204.25a16.3,16.3,0,0,0,.64,4.3,10.81,10.81,0,0,0,2.44,4.39,13.8,13.8,0,0,0,5.22,3.47,23.9,23.9,0,0,0,9,1.42Z"/><path d="M157.63,262.19h-13.3a66.46,66.46,0,0,1-10.81-.91,50,50,0,0,1-10.8-3.06,41.53,41.53,0,0,1-9.89-5.73,37,37,0,0,1-8.18-9,44.22,44.22,0,0,1-5.55-12.76,65,65,0,0,1-2-17V185.9a37.57,37.57,0,0,0-2-12.15,32.75,32.75,0,0,0-6-10.62,29.57,29.57,0,0,0-23.26-10.44v-4.51a29.45,29.45,0,0,0,13-2.81,30.16,30.16,0,0,0,9.83-7.45,34,34,0,0,0,6.23-10.55,34.78,34.78,0,0,0,2.19-12.15V85.68q0-14.4,3.85-23.74a37.39,37.39,0,0,1,10.31-14.77,36.83,36.83,0,0,1,15-7.57,73.94,73.94,0,0,1,18.07-2.14h13.3v6a50.33,50.33,0,0,0-11.9,3.91,23,23,0,0,0-8.06,6.41,26,26,0,0,0-4.58,9.64,56,56,0,0,0-1.46,13.73V102.4A79.05,79.05,0,0,1,129.49,121a44.65,44.65,0,0,1-6.89,15.62,32.68,32.68,0,0,1-12.45,10.5q-7.7,3.78-18.8,3.3,11.6.24,19.34,3.84a31.13,31.13,0,0,1,12.39,10,40.61,40.61,0,0,1,6.6,15.14,87.66,87.66,0,0,1,1.95,19.1V222.4a90.55,90.55,0,0,0,1.1,15.44,23.3,23.3,0,0,0,4,10.07,18.92,18.92,0,0,0,7.93,6,51.63,51.63,0,0,0,12.94,3.24Z"/><path d="M1122.45,257.19a52.6,52.6,0,0,0,12.88-3.24,18.92,18.92,0,0,0,8-6,23.43,23.43,0,0,0,4-10.07,90.55,90.55,0,0,0,1.1-15.44V198.47a87.66,87.66,0,0,1,2-19.1,40.6,40.6,0,0,1,6.59-15.14,31.13,31.13,0,0,1,12.39-10q7.75-3.6,19.35-3.84-11.1.48-18.8-3.3a32.68,32.68,0,0,1-12.45-10.5,44.85,44.85,0,0,1-6.9-15.62,79.59,79.59,0,0,1-2.13-18.56V77.13A55.43,55.43,0,0,0,1147,63.4a25.18,25.18,0,0,0-4.64-9.64,23.68,23.68,0,0,0-8-6.41,49.34,49.34,0,0,0-11.84-3.91v-6h13.18a74,74,0,0,1,18.07,2.14,36.79,36.79,0,0,1,15,7.57A37.51,37.51,0,0,1,1179,61.94q3.84,9.33,3.84,23.74v29.54a34.57,34.57,0,0,0,2.2,12.15,34,34,0,0,0,6.22,10.55,30.27,30.27,0,0,0,9.83,7.45,29.48,29.48,0,0,0,13,2.81v4.51a29.85,29.85,0,0,0-13.37,2.87,30.16,30.16,0,0,0-9.76,7.57,33.46,33.46,0,0,0-6,10.62,36.34,36.34,0,0,0-2.08,12.15v27.83a65.07,65.07,0,0,1-2,17,44.5,44.5,0,0,1-5.56,12.76,36.84,36.84,0,0,1-8.18,9,41.47,41.47,0,0,1-9.88,5.73,49.88,49.88,0,0,1-10.81,3.06,66.34,66.34,0,0,1-10.8.91h-13.18Z"/></svg>